<svg width="400" height="147" viewBox="0 0 400 147" fill="none" xmlns="http://www.w3.org/2000/svg">
<path d="M75.6673 79.182C83.8508 80.5262 89.2862 83.3978 91.9733 87.7968C94.7826 92.0736 96.1872 97.1446 96.1872 103.01C96.1872 104.232 96.1261 105.148 96.004 105.759C93.6833 120.667 87.454 131.298 77.3162 137.652C67.1784 143.884 55.2084 147 41.4063 147C37.8642 147 34.0167 146.572 29.8638 145.717C25.8331 144.984 22.5353 143.884 19.9703 142.418C18.1382 143.762 14.7182 144.434 9.71033 144.434C6.41248 144.434 4.09177 143.151 2.74821 140.585C1.40464 137.896 0.732855 134.658 0.732855 130.87C0.732855 129.526 0.916069 128.243 1.2825 127.021L21.8024 44.9065C13.1303 47.8391 7.75605 50.894 5.67963 54.0711C1.89321 50.0387 0 46.3117 0 42.8903C0 40.202 1.03821 37.4526 3.11463 34.6421C8.00033 31.4651 15.9396 28.4713 26.9324 25.6608C27.9096 23.0948 29.131 21.3229 30.5967 20.3454C32.1845 19.3678 34.5053 18.879 37.5588 18.879C40.1238 18.879 42.5056 19.1234 44.7042 19.6122C47.0249 20.101 48.6738 20.8342 49.6509 21.8117C55.5138 21.0785 61.4377 20.712 67.4227 20.712C79.8812 20.712 89.0419 23.217 94.9047 28.2269C100.768 33.1147 103.699 39.9576 103.699 48.7556C103.699 56.2095 101.073 62.6247 95.8208 68.0012C90.5687 73.2556 83.8508 76.9825 75.6673 79.182ZM38.4749 74.4165C65.2241 72.217 78.5987 64.3965 78.5987 50.9551C78.5987 47.1671 77.4383 44.2344 75.1176 42.1571C72.7969 39.9576 68.8273 38.8579 63.2087 38.8579C58.2009 38.8579 52.6434 39.1633 46.5363 39.7743L38.4749 74.4165ZM39.0245 129.221C44.5209 129.221 49.8341 128.243 54.9641 126.288C60.2162 124.211 64.4912 121.339 67.7891 117.673C71.0869 113.885 72.7359 109.486 72.7359 104.476C72.7359 100.322 71.2702 96.778 68.3387 93.8454C65.5295 90.7905 61.5598 89.2631 56.4298 89.2631C46.7806 89.2631 39.8185 89.6297 35.5435 90.3628C33.5892 96.9613 30.3524 109.181 25.8331 127.021C29.7417 128.488 34.1388 129.221 39.0245 129.221Z" fill="#434343"/>
<path d="M184.837 141.501C184.348 143.579 183.249 144.984 181.539 145.717C179.829 146.572 177.569 147 174.76 147C166.332 147 162.118 145.106 162.118 141.318L163.218 134.353C159.798 136.919 155.767 139.485 151.126 142.051C146.484 144.617 142.637 145.9 139.583 145.9C121.506 145.9 112.467 139.974 112.467 128.121C112.467 107.959 118.514 86.086 130.606 62.5025C132.071 59.692 133.598 57.6758 135.186 56.4539C136.896 55.2319 139.766 54.6209 143.797 54.6209C148.072 54.6209 151.248 55.2319 153.324 56.4539C155.523 57.5536 156.622 58.8978 156.622 60.4863C156.622 60.8529 155.95 61.9526 154.607 63.7855C153.263 65.3741 152.103 66.9626 151.126 68.5511C139.644 87.7357 133.903 106.431 133.903 124.638C133.903 126.227 134.514 127.632 135.736 128.854C136.957 130.076 138.056 130.687 139.033 130.687C141.721 130.687 146.24 129.404 152.591 126.838C159.065 124.272 164.012 121.645 167.432 118.956L171.096 104.11C175.493 86.3915 178.241 75.5162 179.34 71.4838C180.684 66.596 182.394 62.6247 184.47 59.5698C186.669 56.3928 190.089 54.8042 194.73 54.8042C201.204 54.8042 204.441 56.7594 204.441 60.6696C204.441 61.2805 204.258 62.0748 203.891 63.0524C203.647 63.9077 203.464 64.6409 203.342 65.2519L196.013 94.9451C190.15 118.529 186.425 134.047 184.837 141.501Z" fill="#434343"/>
<path d="M301.202 59.9364C301.691 60.6696 302.301 62.0748 303.034 64.1521C303.889 66.1072 304.317 67.6347 304.317 68.7344C304.317 69.3454 304.256 69.712 304.133 69.8342C303.523 70.5673 302.118 71.1783 299.919 71.6671C297.721 72.1559 296.255 72.4613 295.522 72.5835C291.736 75.0274 285.69 78.9376 277.384 84.3142C269.201 89.5686 263.216 93.4177 259.429 95.8616C259.674 98.7943 261.872 103.315 266.025 109.425C270.178 115.413 274.636 121.095 279.4 126.471C284.163 131.848 287.033 134.536 288.011 134.536C289.11 134.536 290.453 135.453 292.041 137.286C293.751 139.118 294.606 140.768 294.606 142.234C294.606 143.579 293.751 144.434 292.041 144.8C290.942 145.045 288.866 145.473 285.812 146.084C282.881 146.695 280.316 147 278.117 147C276.163 147 274.636 146.756 273.537 146.267C270.727 145.289 266.88 142.051 261.994 136.552C257.231 130.931 252.65 124.699 248.253 117.857C243.856 110.892 240.986 104.904 239.642 99.894C235.734 115.657 232.985 126.471 231.398 132.337C229.81 138.08 228.527 141.807 227.55 143.517C226.573 145.35 225.413 146.267 224.069 146.267L218.939 146.45C210.878 146.45 206.664 143.212 206.297 136.736C208.74 130.748 210.45 125.799 211.427 121.889C223.519 77.0436 232.13 43.2569 237.26 20.5287C237.138 18.6958 237.016 16.1908 236.894 13.0137C236.772 9.71447 236.711 7.14838 236.711 5.31546C237.077 3.72693 238.421 2.44389 240.741 1.46634C243.184 0.488779 245.383 0 247.337 0C250.391 0 253.627 1.03865 257.047 3.11596C260.467 5.19327 262.239 7.69825 262.361 10.6309L246.055 74.5997L242.94 87.2469C245.505 84.0698 249.841 80.1596 255.948 75.5162C262.177 70.8728 268.529 66.7182 275.002 63.0524C281.598 59.3865 286.85 57.187 290.759 56.4539C291.736 56.4539 293.507 56.7593 296.072 57.3703C298.759 57.9813 300.469 58.8367 301.202 59.9364Z" fill="#434343"/>
<path d="M380.396 141.501C379.908 143.579 378.808 144.984 377.098 145.717C375.388 146.572 373.129 147 370.319 147C361.891 147 357.678 145.106 357.678 141.318L358.777 134.353C354.624 138.263 350.532 141.135 346.502 142.968C342.593 144.923 338.135 145.9 333.127 145.9C326.043 145.9 320.058 144.006 315.172 140.218C310.408 136.308 308.027 129.404 308.027 119.506C308.027 117.062 308.393 114.374 309.126 111.441L321.401 62.5025C322.134 59.8142 323.417 57.8591 325.249 56.6372C327.203 55.293 330.318 54.6209 334.593 54.6209C340.944 54.6209 344.12 56.3928 344.12 59.9364C344.12 61.4027 343.692 63.7244 342.837 66.9015L330.562 116.024C330.196 117.49 330.012 118.956 330.012 120.423C330.012 122.989 330.684 125.066 332.028 126.655C333.371 128.243 335.509 129.037 338.44 129.037C342.349 129.037 346.746 127.938 351.632 125.738C356.517 123.416 360.426 120.728 363.357 117.673L368.121 99.1608C373.129 79.3653 376.06 67.879 376.915 64.702C377.648 62.0137 378.32 60.0586 378.93 58.8367C379.663 57.4925 380.885 56.515 382.595 55.904C384.305 55.1708 386.87 54.8042 390.29 54.8042C396.763 54.8042 400 56.7594 400 60.6696C400 61.2805 399.817 62.0748 399.45 63.0524C399.206 63.9077 399.023 64.6409 398.901 65.2519L391.572 94.9451C385.709 118.529 381.984 134.047 380.396 141.501Z" fill="#434343"/>
</svg>
